<svg width="90" height="70" viewBox="0 0 90 70" fill="none" xmlns="http://www.w3.org/2000/svg">
<g clip-path="url(#clip0_546_4198)">
<path d="M0.906889 67.0835C1.21163 67.2555 1.51883 67.4104 1.83341 67.548C2.14798 67.6856 2.47238 67.8011 2.80662 67.897C3.14331 67.9928 3.49721 68.0641 3.86585 68.1132C4.23695 68.1649 4.63016 68.1894 5.05041 68.1894C5.55422 68.1894 5.9843 68.1575 6.3382 68.0911C6.69209 68.0248 6.98209 67.9338 7.20573 67.8183C7.42938 67.7028 7.59158 67.5627 7.6948 67.403C7.79556 67.2408 7.84717 67.0663 7.84717 66.8771C7.84717 66.5723 7.71937 66.3315 7.46624 66.1545C7.21311 65.9776 6.81989 65.8891 6.2915 65.8891C6.05803 65.8891 5.81473 65.9039 5.55668 65.9358C5.29863 65.9653 5.03813 65.9997 4.77516 66.0341C4.5122 66.071 4.25169 66.1029 3.9961 66.1324C3.74051 66.1619 3.49966 66.1791 3.27356 66.1791C2.89755 66.1791 2.53628 66.13 2.19222 66.0341C1.84569 65.9383 1.54095 65.7933 1.27307 65.5991C1.00765 65.405 0.793839 65.1641 0.636552 64.8741C0.479266 64.5841 0.400622 64.245 0.400622 63.8591C0.400622 63.6306 0.432571 63.402 0.494011 63.1759C0.555451 62.9498 0.656213 62.736 0.793839 62.5296C0.931465 62.3231 1.11087 62.1314 1.32714 61.9545C1.54587 61.7775 1.80883 61.6252 2.11849 61.4949C2.42815 61.3647 2.78696 61.2639 3.19246 61.1926C3.59797 61.1189 4.06 61.082 4.58101 61.082C4.95702 61.082 5.33304 61.1017 5.71397 61.1435C6.09244 61.1853 6.46354 61.2418 6.82235 61.318C7.18116 61.3941 7.52768 61.4826 7.86191 61.5883C8.19369 61.694 8.50335 61.8119 8.79089 61.9397L8.04378 63.3135C7.80785 63.2103 7.55471 63.1145 7.28192 63.026C7.00913 62.9375 6.7265 62.8613 6.42913 62.7974C6.13176 62.7335 5.82456 62.6819 5.50753 62.6451C5.1905 62.6082 4.86855 62.5885 4.53923 62.5885C4.06983 62.5885 3.68398 62.623 3.3817 62.6918C3.07941 62.7606 2.83857 62.8466 2.65916 62.9523C2.47976 63.0579 2.35688 63.1759 2.28561 63.3062C2.21679 63.4364 2.17993 63.5667 2.17993 63.6969C2.17993 63.9476 2.29298 64.1516 2.51908 64.3113C2.74518 64.4711 3.08679 64.5497 3.54882 64.5497C3.73559 64.5497 3.94941 64.535 4.19025 64.5104C4.4311 64.4858 4.68669 64.4539 4.95211 64.4219C5.21753 64.39 5.49032 64.3605 5.76803 64.3334C6.04574 64.3064 6.31362 64.2941 6.57659 64.2941C7.07057 64.2941 7.50802 64.3507 7.88895 64.4612C8.26988 64.5718 8.58937 64.7316 8.84741 64.9356C9.10546 65.1395 9.29961 65.3902 9.43233 65.6827C9.56504 65.9751 9.63139 66.302 9.63139 66.6633C9.63139 67.1449 9.51834 67.5775 9.2947 67.9535C9.07106 68.3295 8.75157 68.649 8.33869 68.9095C7.92581 69.17 7.42692 69.3666 6.84447 69.4993C6.26201 69.6345 5.61075 69.7009 4.89558 69.7009C4.42372 69.7009 3.96169 69.6714 3.51195 69.6124C3.06221 69.5534 2.62967 69.4698 2.21434 69.3593C1.799 69.2487 1.40824 69.1184 1.03468 68.966C0.661129 68.8137 0.314606 68.6465 -0.00488281 68.4647L0.901974 67.086L0.906889 67.0835Z" fill="#293554"/>
<path d="M12.6147 61.1873H14.3154L17.3653 64.247L20.4152 61.1873H22.1159V69.5775H20.4152V63.5441L17.3653 66.4809L14.3154 63.5441V69.5775H12.6147V61.1873Z" fill="#293554"/>
<path d="M28.4664 61.1873H30.2703L34.3278 69.5775H32.5411L31.8702 68.1669H26.9697L26.3209 69.5775H24.5269L28.4664 61.1873ZM31.1993 66.766L29.3855 62.9543L27.6185 66.766H31.1993Z" fill="#293554"/>
<path d="M39.2602 62.6812H36.1636V61.1895H44.0599V62.6812H40.9633V69.5797H39.2626V62.6812H39.2602Z" fill="#293554"/>
<path d="M49.5014 62.6812H46.4048V61.1895H54.3011V62.6812H51.2045V69.5797H49.5038V62.6812H49.5014Z" fill="#293554"/>
<path d="M56.7046 65.3332C56.7046 64.736 56.8176 64.1782 57.0437 63.6621C57.2698 63.146 57.5967 62.6962 58.0243 62.3153C58.452 61.9344 58.9754 61.6345 59.5923 61.4158C60.2091 61.1971 60.9096 61.089 61.6886 61.089C62.3718 61.089 62.9985 61.1578 63.5711 61.2954C64.1413 61.433 64.6721 61.6444 65.1637 61.927L64.3797 63.2148C64.2322 63.1189 64.0627 63.0329 63.8734 62.9567C63.6842 62.8806 63.4778 62.8191 63.2615 62.765C63.0452 62.7134 62.8216 62.6717 62.5906 62.6446C62.3595 62.6176 62.131 62.6004 61.9049 62.6004C61.3618 62.6004 60.8751 62.6667 60.45 62.8019C60.0248 62.9371 59.666 63.1239 59.3736 63.3647C59.0811 63.6055 58.8599 63.8955 58.7075 64.2298C58.5552 64.564 58.479 64.9327 58.479 65.3332C58.479 65.7338 58.5576 66.1295 58.7149 66.476C58.8722 66.8226 59.1008 67.1224 59.4006 67.3755C59.7004 67.6286 60.0641 67.8253 60.4967 67.9653C60.9292 68.1054 61.4158 68.1767 61.959 68.1767C62.2047 68.1767 62.4505 68.1595 62.6938 68.1226C62.9371 68.0882 63.173 68.0366 63.3991 67.9752C63.6252 67.9137 63.8464 67.8375 64.0577 67.7491C64.2691 67.6606 64.4657 67.5648 64.6476 67.4615L65.4315 68.7493C64.9744 69.0418 64.4436 69.2728 63.8415 69.4399C63.2394 69.607 62.6004 69.6881 61.9245 69.6881C61.0619 69.6881 60.305 69.5775 59.6537 69.3539C59.0025 69.1302 58.4593 68.823 58.0219 68.4298C57.5844 68.0366 57.2576 67.577 57.0364 67.0437C56.8152 66.5129 56.707 65.9403 56.707 65.3283L56.7046 65.3332Z" fill="#293554"/>
<path d="M67.9062 65.3603C67.9062 64.7262 68.0218 64.1462 68.2552 63.6203C68.4887 63.0944 68.8156 62.6422 69.2358 62.2637C69.6561 61.8852 70.1599 61.5928 70.7497 61.3863C71.3395 61.1799 71.9908 61.0742 72.706 61.0742C73.4211 61.0742 74.0699 61.1774 74.6598 61.3863C75.2496 61.5928 75.7558 61.8877 76.1761 62.2637C76.5963 62.6422 76.9232 63.0919 77.1567 63.6203C77.3902 64.1462 77.5057 64.7262 77.5057 65.3603C77.5057 65.9944 77.3902 66.5817 77.1567 67.1126C76.9232 67.6434 76.5963 68.1005 76.1761 68.4839C75.7558 68.8673 75.2496 69.1647 74.6598 69.3785C74.0699 69.5923 73.4187 69.698 72.706 69.698C71.9932 69.698 71.3371 69.5923 70.7497 69.3785C70.1623 69.1647 69.6561 68.8673 69.2358 68.4839C68.8156 68.1005 68.4887 67.6434 68.2552 67.1126C68.0218 66.5817 67.9062 65.9968 67.9062 65.3603ZM69.6069 65.3603C69.6069 65.7928 69.6856 66.1836 69.8404 66.5301C69.9952 66.8766 70.2115 67.174 70.4892 67.4173C70.7669 67.6631 71.0938 67.8523 71.4722 67.985C71.8507 68.1177 72.2611 68.1841 72.7035 68.1841C73.1459 68.1841 73.5587 68.1177 73.9348 67.985C74.3132 67.8523 74.6401 67.6631 74.9153 67.4173C75.1906 67.1715 75.4069 66.8766 75.5642 66.5301C75.7214 66.1836 75.8001 65.7928 75.8001 65.3603C75.8001 64.9278 75.7214 64.5394 75.5642 64.1954C75.4069 63.8513 75.1906 63.5613 74.9153 63.3229C74.6401 63.0845 74.3132 62.9027 73.9348 62.7773C73.5563 62.652 73.1459 62.5881 72.7035 62.5881C72.2611 62.5881 71.8483 62.6495 71.4722 62.7773C71.0938 62.9027 70.7669 63.0845 70.4892 63.3229C70.2115 63.5613 69.9952 63.8513 69.8404 64.1954C69.6856 64.5394 69.6069 64.9278 69.6069 65.3603Z" fill="#293554"/>
<path d="M80.499 61.1873H82.1997L85.2496 64.247L88.2995 61.1873H90.0001V69.5775H88.2995V63.5441L85.2496 66.4809L82.1997 63.5441V69.5775H80.499V61.1873Z" fill="#293554"/>
<path d="M57.9159 13.1924V15.6746C57.9159 15.972 57.5939 16.1588 57.3359 16.0088L54.6325 14.4483C54.5121 14.3795 54.4384 14.2517 54.4384 14.114V13.1482C54.4384 8.03883 50.4767 3.6815 45.3723 3.48489C40.0024 3.27599 35.5615 7.58663 35.5615 12.9172V14.1828C35.5615 14.3205 35.4878 14.4483 35.3673 14.5171L32.664 16.0777C32.4059 16.2276 32.084 16.0408 32.084 15.7434V12.9172C32.084 5.65987 38.1002 -0.216268 45.3993 0.00491701C52.4207 0.218729 57.9159 6.16614 57.9159 13.19V13.1924Z" fill="url(#paint0_linear_546_4198)"/>
<path d="M44.0893 54.2955C44.1114 54.4847 43.9443 54.6445 43.76 54.6027C43.207 54.4798 42.6663 54.2734 42.165 53.9834L28.7121 46.2124C26.9622 45.2048 25.876 43.3223 25.876 41.3046V25.7652C25.876 23.7475 26.9647 21.8649 28.7121 20.8573L32.0249 18.9453L35.5024 16.9325L42.165 13.0864C43.0399 12.5801 44.0229 12.3319 45.0011 12.3319C45.9792 12.3319 46.9622 12.5801 47.8371 13.0864L54.3793 16.8662L57.7978 18.8396C54.7184 21.3832 52.1183 24.2734 50.017 27.4978C43.293 37.8099 43.4307 48.7585 44.0893 54.2955Z" fill="url(#paint1_linear_546_4198)"/>
<path d="M64.1261 25.7628V41.3022C64.1261 43.3199 63.0373 45.2024 61.29 46.2101L48.9454 53.342C48.7218 53.4723 48.4539 53.2536 48.5375 53.0103C49.518 50.1472 50.8673 47.3897 52.4917 44.8412C54.3571 41.9633 56.7188 39.4172 59.5893 37.5249C59.7196 37.4389 59.6041 37.2447 59.464 37.3111C54.0376 39.8842 49.8621 44.5438 46.8393 49.7662C46.6967 50.0144 46.3158 49.9211 46.3133 49.6335C46.2617 44.0498 47.2988 36.2174 52.0985 28.8544C54.2244 25.5957 56.8933 22.6981 60.103 20.1717L61.2949 20.8599C63.0472 21.8724 64.1261 23.7426 64.1261 25.7652V25.7628Z" fill="url(#paint2_linear_546_4198)"/>
</g>
<defs>
<linearGradient id="paint0_linear_546_4198" x1="45.0012" y1="-25.886" x2="45.0012" y2="0.270338" gradientUnits="userSpaceOnUse">
<stop stop-color="#52E2F5"/>
<stop offset="0.09" stop-color="#44BAEC"/>
<stop offset="0.17" stop-color="#3899E4"/>
<stop offset="0.25" stop-color="#2E80DF"/>
<stop offset="0.34" stop-color="#286EDB"/>
<stop offset="0.43" stop-color="#2463D8"/>
<stop offset="0.54" stop-color="#2360D8"/>
<stop offset="1" stop-color="#3449C0"/>
</linearGradient>
<linearGradient id="paint1_linear_546_4198" x1="37.2793" y1="56.7163" x2="40.8207" y2="29.8276" gradientUnits="userSpaceOnUse">
<stop stop-color="#52E2F5"/>
<stop offset="0.09" stop-color="#44BAEC"/>
<stop offset="0.17" stop-color="#3899E4"/>
<stop offset="0.25" stop-color="#2E80DF"/>
<stop offset="0.34" stop-color="#286EDB"/>
<stop offset="0.43" stop-color="#2463D8"/>
<stop offset="0.54" stop-color="#2360D8"/>
<stop offset="0.99" stop-color="#3449C0"/>
</linearGradient>
<linearGradient id="paint2_linear_546_4198" x1="62.2167" y1="24.0068" x2="39.1953" y2="60.8327" gradientUnits="userSpaceOnUse">
<stop stop-color="#BBFFDC"/>
<stop offset="0.532239" stop-color="#68A585"/>
<stop offset="1" stop-color="#1D5538"/>
</linearGradient>
<clipPath id="clip0_546_4198">
<rect width="90" height="69.6977" fill="white"/>
</clipPath>
</defs>
</svg>
